# Blender 4.2.3 LTS
# www.blender.org
o Cube
v 0.999000 0.999000 -1.000000
v 0.999000 1.000000 -0.999000
v 1.000000 0.999000 -0.999000
v 0.999000 -1.000000 -0.999000
v 0.999000 -0.999000 -1.000000
v 1.000000 -0.999000 -0.999000
v 1.000000 0.999000 0.999000
v 0.999000 1.000000 0.999000
v 0.999000 0.999000 1.000000
v 1.000000 -0.999000 0.999000
v 0.999000 -0.999000 1.000000
v 0.999000 -1.000000 0.999000
v -0.999000 0.999000 -1.000000
v -1.000000 0.999000 -0.999000
v -0.999000 1.000000 -0.999000
v -1.000000 -0.999000 -0.999000
v -0.999000 -0.999000 -1.000000
v -0.999000 -1.000000 -0.999000
v -1.000000 0.999000 0.999000
v -0.999000 0.999000 1.000000
v -0.999000 1.000000 0.999000
v -0.999000 -1.000000 0.999000
v -0.999000 -0.999000 1.000000
v -1.000000 -0.999000 0.999000
vn -0.0000 -1.0000 -0.0000
vn -1.0000 -0.0000 -0.0000
vn -0.0000 -0.0000 1.0000
vn -0.0000 1.0000 -0.0000
vn 1.0000 -0.0000 -0.0000
vn 0.7071 -0.0000 0.7071
vn -0.7071 -0.0000 -0.7071
vn -0.0000 0.7071 0.7071
vn -0.7071 0.7071 -0.0000
vn 0.7071 -0.7071 -0.0000
vn -0.0000 -0.0000 -1.0000
vt 0.374875 0.500125
vt 0.125125 0.749875
vt 0.125125 0.500125
vt 0.624875 0.000125
vt 0.375125 0.249875
vt 0.375125 0.000125
vt 0.624875 0.750125
vt 0.375125 0.999875
vt 0.375125 0.750125
vt 0.874875 0.500125
vt 0.625125 0.749875
vt 0.625125 0.500125
vt 0.624875 0.500125
vt 0.375125 0.749875
vt 0.375125 0.500125
vt 0.624875 0.749875
vt 0.375125 0.250125
vt 0.624875 0.249875
vt 0.624875 0.250125
vt 0.625000 0.999875
vt 0.625000 0.750125
vt 0.625000 0.249875
vt 0.625000 0.000125
vt 0.374875 0.749875
vt 0.375125 0.499875
vt 0.624875 0.999875
vt 0.874875 0.749875
vt 0.624875 0.499875
s 0
f 4/1/1 22/2/1 18/3/1
f 19/4/2 16/5/2 24/6/2
f 9/7/3 23/8/3 11/9/3
f 15/10/4 8/11/4 2/12/4
f 3/13/5 10/14/5 6/15/5
f 11/9/6 7/16/6 9/7/6
f 17/17/7 14/18/7 13/19/7
f 21/20/8 9/7/8 8/21/8
f 15/22/9 19/4/9 21/23/9
f 4/1/10 10/14/10 12/24/10
f 13/19/11 5/25/11 17/17/11
f 4/1/1 12/24/1 22/2/1
f 19/4/2 14/18/2 16/5/2
f 9/7/3 20/26/3 23/8/3
f 15/10/4 21/27/4 8/11/4
f 3/13/5 7/16/5 10/14/5
f 11/9/6 10/14/6 7/16/6
f 17/17/7 16/5/7 14/18/7
f 21/20/8 20/26/8 9/7/8
f 15/22/9 14/18/9 19/4/9
f 4/1/10 6/15/10 10/14/10
f 13/19/11 1/28/11 5/25/11
